<?xml version="1.0" encoding="UTF-8" standalone="no"?>
<!-- Created with Inkscape (http://www.inkscape.org/) -->

<svg
   xmlns:dc="http://purl.org/dc/elements/1.1/"
   xmlns:cc="http://creativecommons.org/ns#"
   xmlns:rdf="http://www.w3.org/1999/02/22-rdf-syntax-ns#"
   xmlns:svg="http://www.w3.org/2000/svg"
   xmlns="http://www.w3.org/2000/svg"
   xmlns:sodipodi="http://sodipodi.sourceforge.net/DTD/sodipodi-0.dtd"
   xmlns:inkscape="http://www.inkscape.org/namespaces/inkscape"
   width="24"
   height="24"
   id="svg2"
   version="1.1"
   inkscape:version="0.48.0 r9654"
   sodipodi:docname="film_strip.svg"
   inkscape:export-filename="/home/brian/Projects/Public/snap/data/film_strip.png"
   inkscape:export-xdpi="90"
   inkscape:export-ydpi="90">
  <defs
     id="defs4" />
  <sodipodi:namedview
     id="base"
     pagecolor="#ffffff"
     bordercolor="#666666"
     borderopacity="1.0"
     inkscape:pageopacity="0.0"
     inkscape:pageshadow="2"
     inkscape:zoom="4"
     inkscape:cx="49.964577"
     inkscape:cy="-5.6210757"
     inkscape:document-units="px"
     inkscape:current-layer="layer1"
     showgrid="false"
     inkscape:window-width="1024"
     inkscape:window-height="529"
     inkscape:window-x="0"
     inkscape:window-y="25"
     inkscape:window-maximized="1" />
  <metadata
     id="metadata7">
    <rdf:RDF>
      <cc:Work
         rdf:about="">
        <dc:format>image/svg+xml</dc:format>
        <dc:type
           rdf:resource="http://purl.org/dc/dcmitype/StillImage" />
        <dc:title></dc:title>
      </cc:Work>
    </rdf:RDF>
  </metadata>
  <g
     inkscape:label="Layer 1"
     inkscape:groupmode="layer"
     id="layer1"
     transform="translate(0,-1028.3622)">
    <g
       id="g4300"
       transform="matrix(1.6847865,-1.6847865,1.6847865,1.6847865,-1732.5325,-705.40547)">
      <rect
         y="1021.2059"
         x="2.6152325"
         height="14.574203"
         width="18.769535"
         id="rect3815-6-3"
         style="fill:#2e3436;fill-opacity:1;stroke:#ff4747;stroke-width:0.41970112999999998;stroke-opacity:1" />
      <rect
         y="1035.78"
         x="2.6152325"
         height="14.574203"
         width="18.769535"
         id="rect3815-6-3-9"
         style="fill:#2e3436;fill-opacity:1;stroke:#ff4747;stroke-width:0.41970112999999998;stroke-opacity:1" />
      <rect
         y="1050.3542"
         x="2.6152325"
         height="14.574203"
         width="18.769535"
         id="rect3815-6-3-9-6"
         style="fill:#2e3436;fill-opacity:1;stroke:#ff4747;stroke-width:0.41970112999999998;stroke-opacity:1" />
      <path
         id="rect3815"
         transform="translate(0,1028.3622)"
         d="m -0.5625,-7.15625 0,38.3125 3.1875,0 0,-38.3125 -3.1875,0 z m 21.9375,0 0,38.3125 3.1875,0 0,-38.3125 -3.1875,0 z m -21.40625,1.375 2.125,0 0,0.9375 -2.125,0 0,-0.9375 z m 22,0 2.125,0 0,0.9375 -2.125,0 0,-0.9375 z m -22,2.71875 2.125,0 0,0.9375 -2.125,0 0,-0.9375 z m 22,0 2.125,0 0,0.9375 -2.125,0 0,-0.9375 z m -22,2.71875 2.125,0 0,0.9375 -2.125,0 0,-0.9375 z m 22,0 2.125,0 0,0.9375 -2.125,0 0,-0.9375 z m -22,2.71875 2.125,0 0,0.96875 -2.125,0 0,-0.96875 z m 22,0 2.125,0 0,0.96875 -2.125,0 0,-0.96875 z m -22,2.75 2.125,0 0,0.9375 -2.125,0 0,-0.9375 z m 22,0 2.125,0 0,0.9375 -2.125,0 0,-0.9375 z m -22,2.71875 2.125,0 0,0.9375 -2.125,0 0,-0.9375 z m 22,0 2.125,0 0,0.9375 -2.125,0 0,-0.9375 z m -22,2.71875 2.125,0 0,0.9375 -2.125,0 0,-0.9375 z m 22,0 2.125,0 0,0.9375 -2.125,0 0,-0.9375 z m -22,2.71875 2.125,0 0,0.9375 -2.125,0 0,-0.9375 z m 22,0 2.125,0 0,0.9375 -2.125,0 0,-0.9375 z m -22,2.71875 2.125,0 0,0.9375 -2.125,0 0,-0.9375 z m 22,0 2.125,0 0,0.9375 -2.125,0 0,-0.9375 z m -22,2.71875 2.125,0 0,0.96875 -2.125,0 0,-0.96875 z m 22,0 2.125,0 0,0.96875 -2.125,0 0,-0.96875 z m -22,2.75 2.125,0 0,0.9375 -2.125,0 0,-0.9375 z m 22,0 2.125,0 0,0.9375 -2.125,0 0,-0.9375 z m -22,2.71875 2.125,0 0,0.9375 -2.125,0 0,-0.9375 z m 22,0 2.125,0 0,0.9375 -2.125,0 0,-0.9375 z m -22,2.71875 2.125,0 0,0.9375 -2.125,0 0,-0.9375 z m 22,0 2.125,0 0,0.9375 -2.125,0 0,-0.9375 z m -22,2.71875 2.125,0 0,0.9375 -2.125,0 0,-0.9375 z m 22,0 2.125,0 0,0.9375 -2.125,0 0,-0.9375 z"
         style="fill:#ff4747;fill-opacity:1;stroke:none"
         inkscape:connector-curvature="0" />
      <g
         style="fill:#000000;fill-opacity:1;stroke:none"
         transform="translate(-0.04419417,-0.91290283)"
         id="g4072" />
    </g>
  </g>
</svg>
